<?xml version="1.0" encoding="UTF-8"?>
<svg id="Layer_2" xmlns="http://www.w3.org/2000/svg" viewBox="0 0 601.06 720.39">
  <defs>
    <style>
      .cls-1 {
        fill: #fff;
      }
    </style>
  </defs>
  <path class="cls-1" d="M223.88,175.26c-76.32,91.82-131.74,196.39-167.12,300.55-27.07,79.64-42.43,159.05-46.44,232.28-15.85-102.54-13.51-204.7,7.4-306.5h0C6.41,369.97.26,335.91.26,300.4.26,134.5,134.75,0,300.66,0c65.31,0,125.75,20.84,175.04,56.26-112.42,12.15-267.6,23.78-284.3,37.1-28.71,18.89-.5,49.89,32.48,81.91Z"/>
  <path class="cls-1" d="M304.19,712.59c-94.44,20.89-140.73,1.69-111.69-80.22,6.67-15.3,13.76-30.07,21.31-44.3h.01c50.28-94.93,120.4-165.68,215.57-205.9,29.75,34.09,52.18,44.98,68.31,35.88,23.35-12.95,33.94-166.43,46.97-292.89,35.49,49.32,56.4,109.84,56.4,175.25,0,165.91-134.49,300.4-300.4,300.4-1.71,0-3.43-.01-5.13-.04-67.33,60.33-64.37,97.59,8.66,111.82Z"/>
</svg>